HIERARCHY
ROOT joint_Root
{
	OFFSET 0.0 0.0 0.0
	CHANNELS 6 Xposition Yposition Zposition Zrotation Xrotation Yrotation 
	JOINT Hips
	{
		OFFSET 4.5925 91.4895 -427.239
		CHANNELS 6 Xposition Yposition Zposition Zrotation Xrotation Yrotation 
		JOINT Spine
		{
			OFFSET 15.7357 0.0 0.0
			CHANNELS 6 Xposition Yposition Zposition Zrotation Xrotation Yrotation 
			JOINT Chest
			{
				OFFSET 8.98455 -0.406207 0.0
				CHANNELS 6 Xposition Yposition Zposition Zrotation Xrotation Yrotation 
				JOINT Neck
				{
					OFFSET 16.3773 0.0 0.0
					CHANNELS 6 Xposition Yposition Zposition Zrotation Xrotation Yrotation 
					JOINT Head
					{
						OFFSET 6.45672 0.0 0.0
						CHANNELS 6 Xposition Yposition Zposition Zrotation Xrotation Yrotation 
						End Site
						{
							OFFSET 0.0 0.0 0.0
						}
					}
				}
				JOINT Shoulder_L
				{
					OFFSET 12.9942 -0.242716 4.98039
					CHANNELS 6 Xposition Yposition Zposition Zrotation Xrotation Yrotation 
					JOINT UpperArm_L
					{
						OFFSET 5.34809 0.0 0.0
						CHANNELS 6 Xposition Yposition Zposition Zrotation Xrotation Yrotation 
						JOINT LowerArm_L
						{
							OFFSET 24.3286 1.87007e-05 0.0
							CHANNELS 6 Xposition Yposition Zposition Zrotation Xrotation Yrotation 
							JOINT Hand_L
							{
								OFFSET 22.2916 0.0 0.0
								CHANNELS 6 Xposition Yposition Zposition Zrotation Xrotation Yrotation 
								End Site
								{
									OFFSET 0.0 0.0 0.0
								}
							}
						}
					}
				}
				JOINT Shoulder_R
				{
					OFFSET 12.9945 -0.242716 -4.98039
					CHANNELS 6 Xposition Yposition Zposition Zrotation Xrotation Yrotation 
					JOINT UpperArm_R
					{
						OFFSET -5.34813 0.0 0.0
						CHANNELS 6 Xposition Yposition Zposition Zrotation Xrotation Yrotation 
						JOINT LowerArm_R
						{
							OFFSET -24.3289 0.000322201 0.0
							CHANNELS 6 Xposition Yposition Zposition Zrotation Xrotation Yrotation 
							JOINT Hand_R
							{
								OFFSET -22.2915 -0.000108084 0.0
								CHANNELS 6 Xposition Yposition Zposition Zrotation Xrotation Yrotation 
								End Site
								{
									OFFSET 0.0 0.0 0.0
								}
							}
						}
					}
				}
			}
		}
		JOINT UpperLeg_L
		{
			OFFSET -2.19248 -6.46944 0.0
			CHANNELS 6 Xposition Yposition Zposition Zrotation Xrotation Yrotation 
			JOINT LowerLeg_L
			{
				OFFSET 39.0811 0.0 -1.23785e-05
				CHANNELS 6 Xposition Yposition Zposition Zrotation Xrotation Yrotation 
				JOINT Foot_L
				{
					OFFSET 40.9854 0.0 -1.26872e-05
					CHANNELS 6 Xposition Yposition Zposition Zrotation Xrotation Yrotation 
					JOINT Toes_L
					{
						OFFSET 11.7543 0.0 0.0
						CHANNELS 6 Xposition Yposition Zposition Zrotation Xrotation Yrotation 
						End Site
						{
							OFFSET 0.0 0.0 0.0
						}
					}
				}
			}
		}
		JOINT UpperLeg_R
		{
			OFFSET -2.19251 6.46944 0.0
			CHANNELS 6 Xposition Yposition Zposition Zrotation Xrotation Yrotation 
			JOINT LowerLeg_R
			{
				OFFSET -39.0811 -0.00228153 -0.0401928
				CHANNELS 6 Xposition Yposition Zposition Zrotation Xrotation Yrotation 
				JOINT Foot_R
				{
					OFFSET -40.9854 0.0 0.0
					CHANNELS 6 Xposition Yposition Zposition Zrotation Xrotation Yrotation 
					JOINT Toes_R
					{
						OFFSET -11.7543 0.0 0.0
						CHANNELS 6 Xposition Yposition Zposition Zrotation Xrotation Yrotation 
						End Site
						{
							OFFSET 0.0 0.0 0.0
						}
					}
				}
			}
		}
	}
}
MOTION
Frames:	6
Frame Time:	0.0333333
0.000000 0.000000 0.000000 0.000000 0.000000 -0.000000 118.225000 89.490500 145.698000 95.708300 -65.236400 4.153670 15.735700 0.000005 -0.000001 59.762500 82.805300 -59.013400 8.984550 -0.406207 -0.000000 4.744170 -7.252720 1.798970 16.377300 -0.000001 -0.000001 1.517970 -9.742570 2.109740 6.456720 -0.000001 -0.000000 -0.745318 -9.149900 7.233130 12.994200 -0.242716 4.980390 -88.267700 -4.805730 -70.150000 5.348090 -0.000007 -0.000001 -64.140100 20.624300 -41.344600 24.328600 0.000019 0.000005 -16.059600 7.415660 -114.149000 22.291600 -0.000001 0.000005 5.157650 5.504780 -6.726820 12.994500 -0.242716 -4.980390 89.201900 2.435850 -71.851000 -5.348130 -0.000001 -0.000004 -68.040600 42.297100 29.871700 -24.328900 0.000322 -0.000009 -22.337000 0.979708 -92.382900 -22.291500 -0.000108 -0.000004 13.942700 5.626960 -13.111200 -2.192480 -6.469440 -0.000000 -170.990000 -14.642700 -4.969570 39.081100 -0.000007 -0.000012 -0.060943 0.116025 27.711300 40.985400 -0.000006 -0.000013 -6.568900 5.399380 -70.448000 11.754300 -0.000000 0.000003 -0.478488 -0.587984 -17.114800 -2.192510 6.469440 -0.000001 -179.124000 4.301570 152.625000 -39.081100 -0.002282 -0.040193 0.184282 -0.035018 79.072400 -40.985400 0.000008 0.000006 10.581600 -5.988260 -48.108600 -11.754300 -0.000006 -0.000006 -0.023778 -0.187382 -24.236700
0.000000 0.000000 0.000000 0.000000 0.000000 -0.000000 115.280000 90.378600 147.798000 93.601100 -67.587200 -0.218154 15.735700 0.000005 -0.000001 53.667300 83.119000 -52.401600 8.984550 -0.406207 -0.000000 3.442590 -8.191890 2.778670 16.377300 -0.000001 -0.000001 1.440870 -8.943210 2.128390 6.456720 -0.000001 -0.000000 -1.541320 -7.901170 6.514930 12.994200 -0.242716 4.980390 -87.566500 -6.758550 -70.144100 5.348090 -0.000007 -0.000001 -63.325500 19.181600 -44.381200 24.328600 0.000019 0.000005 -14.322700 7.927680 -118.378000 22.291600 -0.000001 0.000005 5.449630 5.495190 -6.340700 12.994500 -0.242716 -4.980390 89.916100 0.255862 -71.854100 -5.348130 -0.000001 -0.000004 -68.507600 43.343300 32.162100 -24.328900 0.000322 -0.000009 -19.036200 1.993720 -95.758600 -22.291500 -0.000108 -0.000004 13.208800 5.620430 -12.648800 -2.192480 -6.469440 -0.000000 -170.401000 -18.135000 -2.299630 39.081100 -0.000007 -0.000012 -0.058833 0.139287 22.898700 40.985400 -0.000006 -0.000013 -6.237870 6.150170 -66.747100 11.754300 -0.000000 0.000003 -1.498600 -1.748230 -20.027200 -2.192510 6.469440 -0.000001 -175.304000 3.762940 145.446000 -39.081100 -0.002282 -0.040193 0.072200 -0.018501 75.026000 -40.985400 0.000008 0.000006 9.488250 -4.039290 -53.363600 -11.754300 -0.000006 -0.000006 -0.023838 -0.187689 -24.249400
0.000000 0.000000 0.000000 0.000000 0.000000 -0.000000 112.388000 90.556700 150.068000 92.801100 -69.712200 -2.516130 15.735700 0.000005 -0.000001 49.802900 83.184600 -48.293900 8.984550 -0.406207 -0.000000 2.794200 -8.855160 3.235930 16.377300 -0.000001 -0.000001 1.252350 -8.215070 2.132720 6.456720 -0.000001 -0.000000 -2.355700 -7.187470 6.599860 12.994200 -0.242716 4.980390 -87.154200 -7.955750 -70.243900 5.348090 -0.000007 -0.000001 -61.065300 18.467300 -46.905100 24.328600 0.000019 0.000005 -13.404400 8.314240 -121.248000 22.291600 -0.000001 0.000005 5.434700 5.491420 -6.191520 12.994500 -0.242716 -4.980390 90.348300 -1.088620 -72.253900 -5.348130 -0.000001 -0.000004 -68.707600 43.128700 33.173800 -24.328900 0.000322 -0.000009 -16.797000 2.442450 -98.035300 -22.291500 -0.000108 -0.000004 13.261900 5.613950 -12.214400 -2.192480 -6.469440 -0.000000 -170.054000 -22.254000 0.444715 39.081100 -0.000007 -0.000012 -0.063675 0.173870 20.113900 40.985400 -0.000006 -0.000013 -6.097670 8.152990 -64.434400 11.754300 -0.000000 0.000003 -1.655810 -1.855580 -23.379100 -2.192510 6.469440 -0.000001 -172.505000 4.624570 140.788000 -39.081100 -0.002282 -0.040193 0.003472 -0.000136 67.611300 -40.985400 0.000008 0.000006 7.390260 -0.036779 -57.475200 -11.754300 -0.000006 -0.000006 -0.024754 -0.192324 -24.440900
0.000000 0.000000 0.000000 0.000000 0.000000 -0.000000 109.528000 89.969700 152.335000 93.785100 -71.201500 -2.128250 15.735700 0.000005 -0.000001 48.640600 83.008500 -47.159300 8.984550 -0.406207 -0.000000 2.885370 -9.294210 3.199160 16.377300 -0.000001 -0.000001 0.456874 -7.856200 2.129580 6.456720 -0.000001 -0.000000 -3.023040 -6.893920 7.253740 12.994200 -0.242716 4.980390 -87.024000 -8.486290 -70.593100 5.348090 -0.000007 -0.000001 -57.918200 18.845400 -49.165000 24.328600 0.000019 0.000005 -12.957300 8.413670 -122.454000 22.291600 -0.000001 0.000005 5.179690 5.487980 -6.056730 12.994500 -0.242716 -4.980390 90.392200 -1.251680 -72.599100 -5.348130 -0.000001 -0.000004 -68.453300 41.865800 32.968100 -24.328900 0.000322 -0.000009 -16.983900 2.754320 -98.940600 -22.291500 -0.000108 -0.000004 13.609200 5.614170 -12.228400 -2.192480 -6.469440 -0.000000 -170.461000 -22.354400 2.623840 39.081100 -0.000007 -0.000012 -0.076153 0.207686 20.136700 40.985400 -0.000006 -0.000013 -6.547340 7.631470 -64.630400 11.754300 -0.000000 0.000003 -1.400460 -1.580700 -26.368500 -2.192510 6.469440 -0.000001 -169.742000 7.402820 138.517000 -39.081100 -0.002282 -0.040193 -0.038752 0.026956 57.287400 -40.985400 0.000008 0.000006 5.575800 3.848090 -60.036300 -11.754300 -0.000006 -0.000006 -0.025513 -0.196107 -24.597300
0.000000 0.000000 0.000000 0.000000 0.000000 -0.000000 106.497000 88.645900 154.580000 97.155000 -71.524800 1.384630 15.735700 0.000005 -0.000001 49.723800 82.562300 -48.581300 8.984550 -0.406207 -0.000000 3.724870 -9.644440 2.600950 16.377300 -0.000001 -0.000001 -1.034100 -8.259180 2.437480 6.456720 -0.000001 -0.000000 -4.044460 -6.892010 8.018470 12.994200 -0.242716 4.980390 -87.161600 -8.488790 -71.434400 5.348090 -0.000007 -0.000001 -54.929000 20.699600 -50.481900 24.328600 0.000019 0.000005 -12.175500 7.735690 -121.958000 22.291600 -0.000001 0.000005 4.616110 5.486140 -5.984210 12.994500 -0.242716 -4.980390 89.932500 0.216139 -72.664800 -5.348130 -0.000001 -0.000004 -67.806300 39.263100 31.341600 -24.328900 0.000322 -0.000009 -17.729700 2.547640 -97.914700 -22.291500 -0.000108 -0.000004 14.135700 5.612990 -12.151900 -2.192480 -6.469440 -0.000000 -171.483000 -20.038400 4.079580 39.081100 -0.000007 -0.000012 -0.103180 0.239976 23.265800 40.985400 -0.000006 -0.000013 -7.290210 6.598130 -67.248300 11.754300 -0.000000 0.000003 -0.949759 -1.097740 -27.258700 -2.192510 6.469440 -0.000001 -166.708000 12.727700 137.522000 -39.081100 -0.002282 -0.040193 -0.050900 0.052595 45.840900 -40.985400 0.000008 0.000006 2.852330 5.347340 -61.576200 -11.754300 -0.000006 -0.000006 -0.026657 -0.201710 -24.829200
0.000000 0.000000 0.000000 0.000000 0.000000 -0.000000 102.962000 87.071300 156.878000 100.955000 -70.952300 5.414910 15.735700 0.000005 -0.000001 51.029200 82.155800 -50.217800 8.984550 -0.406207 -0.000000 4.556760 -9.872600 2.017850 16.377300 -0.000001 -0.000001 -2.519710 -8.776590 2.375630 6.456720 -0.000001 -0.000000 -5.272260 -7.385260 8.819290 12.994200 -0.242716 4.980390 -87.639300 -7.761260 -73.025000 5.348090 -0.000007 -0.000001 -53.329100 24.567500 -48.916700 24.328600 0.000019 0.000005 -11.756000 6.669880 -119.166000 22.291600 -0.000001 0.000005 3.897530 5.486180 -5.986840 12.994500 -0.242716 -4.980390 89.162600 2.725130 -72.909000 -5.348130 -0.000001 -0.000004 -67.549600 35.387900 28.375800 -24.328900 0.000322 -0.000009 -19.492400 1.320430 -93.725400 -22.291500 -0.000108 -0.000004 15.010200 5.616250 -12.365000 -2.192480 -6.469440 -0.000000 -172.048000 -18.632400 5.589710 39.081100 -0.000007 -0.000012 -0.140145 0.273225 27.154900 40.985400 -0.000006 -0.000013 -7.823980 7.832610 -69.179100 11.754300 -0.000000 0.000003 -0.045920 -0.282913 -28.216900 -2.192510 6.469440 -0.000001 -163.009000 19.118900 136.818000 -39.081100 -0.002282 -0.040193 -0.038842 0.058176 35.911900 -40.985400 0.000008 0.000006 2.507740 3.176560 -63.179300 -11.754300 -0.000006 -0.000006 -0.027764 -0.207028 -25.049400
